<svg width="14" height="18" viewBox="0 0 14 18" fill="none" xmlns="http://www.w3.org/2000/svg">
<path d="M7 0.313477C6.4199 0.313477 6.0156 0.717767 6.0156 1.29785V12.1523L6.0947 14.0596L3.8096 11.5107L1.81445 9.5244C1.63867 9.3486 1.39258 9.2344 1.11133 9.2344C0.575198 9.2344 0.179688 9.6387 0.179688 10.1924C0.179688 10.4473 0.276368 10.6846 0.487298 10.8955L6.2705 16.6963C6.4639 16.8984 6.7275 17.0039 7 17.0039C7.2637 17.0039 7.5273 16.8984 7.7207 16.6963L13.5127 10.8955C13.7236 10.6846 13.8203 10.4473 13.8203 10.1924C13.8203 9.6387 13.416 9.2344 12.8799 9.2344C12.6074 9.2344 12.3613 9.3486 12.1855 9.5244L10.1816 11.5107L7.9053 14.0508L7.9756 12.1523V1.29785C7.9756 0.717767 7.5713 0.313477 7 0.313477Z" fill="white"/>
</svg>
