<svg width="20" height="19" viewBox="0 0 20 19" fill="none" xmlns="http://www.w3.org/2000/svg">
<path d="M0.90332 9.9795C0.90332 12.6426 1.67676 15.5869 2.97754 17.8633C3.22363 18.2939 3.68945 18.4258 4.12891 18.2061C4.55957 18.8389 5.29785 19.0938 6.1328 18.8477C7.1875 18.5225 7.6621 17.6084 7.3457 16.5625L6.0801 12.3877C5.76367 11.3506 4.86719 10.876 3.80371 11.1836C3.35547 11.3154 3.0127 11.5615 2.79297 11.8867C2.70508 11.2451 2.65234 10.6035 2.65234 9.9795C2.65234 5.17188 5.58789 1.97266 9.9912 1.97266C14.3945 1.97266 17.3389 5.17188 17.3389 9.9795C17.3389 10.6035 17.2949 11.2451 17.1982 11.8867C16.9785 11.5703 16.6357 11.3242 16.1787 11.1836C15.124 10.876 14.2275 11.3506 13.9111 12.3877L12.6455 16.5625C12.3203 17.6172 12.8037 18.5225 13.8496 18.8477C14.6934 19.0938 15.4316 18.8389 15.8535 18.2148C16.3018 18.4258 16.7676 18.2939 17.0137 17.8633C18.3145 15.5869 19.0967 12.6426 19.0967 9.9795C19.0967 4.11719 15.4668 0.223633 9.9912 0.223633C4.52441 0.223633 0.90332 4.11719 0.90332 9.9795Z" fill="white"/>
</svg>
