<svg width="250" height="250" viewBox="0 0 250 250" fill="none" xmlns="http://www.w3.org/2000/svg">
<path d="M99.8079 247.46C83.8188 244.185 68.6311 237.794 55.1113 228.652C35.0146 215.085 19.2832 195.981 9.8232 173.655C6.62652 166.094 4.18671 158.234 2.5395 150.191C-0.8465 133.568 -0.8465 116.432 2.5395 99.8078C5.81435 83.8188 12.2055 68.6312 21.3484 55.1115C24.6082 50.291 28.1975 45.7017 32.0907 41.3765L32.1015 41.3857C32.6929 40.5715 33.4474 39.8892 34.3168 39.3823C35.1862 38.8755 36.1516 38.5551 37.1516 38.4416C38.1516 38.3281 39.1642 38.424 40.1251 38.7231C41.0861 39.0222 41.9742 39.518 42.7331 40.179C43.492 40.84 44.105 41.6517 44.5331 42.5625C44.9613 43.4733 45.1952 44.4632 45.22 45.4693C45.2448 46.4753 45.0599 47.4756 44.6772 48.4063C44.2944 49.3371 43.7221 50.178 42.9967 50.8756L43.0305 50.9047C34.7231 60.0831 28.0161 70.5913 23.1891 81.9911C20.3635 88.6751 18.2066 95.6225 16.7502 102.732C13.7573 117.426 13.7573 132.574 16.7502 147.268C19.6452 161.402 25.2947 174.827 33.3763 186.778C45.3681 204.544 62.2551 218.45 81.9908 226.811C88.675 229.637 95.6224 231.793 102.731 233.25C117.426 236.243 132.574 236.243 147.268 233.25C161.402 230.355 174.827 224.706 186.778 216.624C202.925 205.723 215.913 190.759 224.435 173.241L224.462 173.254C224.912 172.393 225.531 171.631 226.281 171.013C227.031 170.396 227.898 169.935 228.83 169.659C229.762 169.383 230.739 169.297 231.705 169.406C232.67 169.516 233.604 169.817 234.451 170.294C235.297 170.771 236.039 171.413 236.633 172.183C237.227 172.952 237.66 173.833 237.907 174.772C238.153 175.712 238.209 176.692 238.07 177.654C237.93 178.615 237.6 179.539 237.096 180.371C224.827 205.138 204.706 225.15 179.873 237.286C155.039 249.422 126.888 252.999 99.8079 247.46ZM235.495 123.293C235.495 123.262 235.495 123.231 235.496 123.199L235.481 123.2C235.371 116.323 234.624 109.471 233.25 102.731C230.355 88.5979 224.705 75.1727 216.624 63.2214C204.631 45.4571 187.744 31.5514 168.01 23.1886C161.325 20.3637 154.377 18.2072 147.268 16.7504C126.947 12.5768 105.861 14.198 86.4169 21.429C85.5392 21.8639 84.5826 22.1165 83.6047 22.1716C82.6268 22.2267 81.6478 22.0833 80.7269 21.7498C79.8059 21.4164 78.962 20.8999 78.2461 20.2315C77.5301 19.5631 76.957 18.7566 76.5611 17.8607C76.1653 16.9648 75.955 15.998 75.9429 15.0186C75.9308 14.0393 76.1171 13.0676 76.4908 12.1622C76.8643 11.2568 77.4174 10.4364 78.1167 9.75051C78.8159 9.06463 79.6468 8.52746 80.5592 8.17138L80.5454 8.13685C86.8054 5.75679 93.2471 3.88495 99.8078 2.53949C116.432 -0.846498 133.568 -0.846498 150.192 2.53949C166.181 5.81442 181.368 12.2057 194.888 21.3486C214.985 34.9148 230.717 54.0183 240.177 76.3443C243.373 83.906 245.813 91.7655 247.46 99.8079C248.998 107.348 249.841 115.013 249.979 122.707H249.977C249.992 122.901 250 123.096 250 123.293C250 125.217 249.236 127.061 247.876 128.421C246.516 129.781 244.671 130.546 242.747 130.546C240.824 130.546 238.979 129.781 237.619 128.421C236.259 127.061 235.495 125.217 235.495 123.293Z" fill="#DA90DA"/>
<path d="M135.439 222.2L135.436 222.173C135.231 222.191 135.024 222.199 134.814 222.199C132.909 222.192 131.084 221.436 129.732 220.094C128.38 218.752 127.61 216.932 127.589 215.027C127.567 213.122 128.296 211.285 129.617 209.913C130.939 208.541 132.747 207.744 134.651 207.694C137.156 207.416 139.661 207.023 142.11 206.522C152.698 204.353 162.756 200.121 171.709 194.067C185.017 185.083 195.435 172.432 201.699 157.648C203.816 152.641 205.432 147.436 206.523 142.11C208.764 131.101 208.764 119.754 206.523 108.745C204.354 98.1569 200.122 88.0993 194.068 79.1461C185.084 65.8376 172.433 55.4201 157.648 49.156C152.641 47.0393 147.436 45.4235 142.11 44.3322C131.101 42.0896 119.753 42.0896 108.745 44.3322C98.1566 46.5007 88.099 50.733 79.1462 56.7877C65.8373 65.7713 55.4195 78.422 49.1553 93.2069C45.7481 101.266 43.6477 109.817 42.9333 118.537H42.8964C42.803 120.396 41.999 122.147 40.6506 123.429C39.3023 124.712 37.5127 125.427 35.652 125.427C33.7912 125.427 32.0017 124.712 30.6533 123.429C29.3049 122.147 28.5009 120.396 28.4075 118.537H28.3838L28.3999 118.314C28.3992 118.267 28.3984 118.22 28.3984 118.173C28.3981 117.736 28.4372 117.301 28.5151 116.871C30.099 98.8965 36.6494 81.7161 47.4345 67.2496C58.2196 52.783 72.8146 41.6001 89.589 34.9501C106.363 28.3001 124.656 26.445 142.424 29.5921C160.192 32.7392 176.735 40.7644 190.205 52.7713C203.674 64.7781 213.541 80.2937 218.701 97.5845C223.861 114.875 224.112 133.26 219.426 150.686C214.739 168.111 205.301 183.89 192.164 196.26C179.027 208.63 162.709 217.104 145.034 220.735C141.888 221.378 138.659 221.871 135.439 222.2ZM89.2989 215.778L89.2981 215.78C89.2882 215.776 89.2767 215.773 89.2659 215.769C88.7743 215.626 88.2993 215.431 87.8489 215.187C87.7521 215.147 87.6561 215.107 87.5601 215.066C64.441 205.27 45.9882 186.938 36.0395 163.884L36.0588 163.876C35.6482 162.984 35.4231 162.018 35.3969 161.036C35.3708 160.054 35.5442 159.078 35.9067 158.165C36.2692 157.252 36.8133 156.422 37.5058 155.726C38.1984 155.03 39.0251 154.482 39.9359 154.114C40.8467 153.747 41.8226 153.568 42.8044 153.589C43.7862 153.61 44.7536 153.83 45.6479 154.236C46.5422 154.642 47.3448 155.225 48.0071 155.95C48.6694 156.675 49.1776 157.527 49.5009 158.454C57.9989 177.931 73.641 193.408 93.2065 201.698C93.6343 201.879 94.0677 202.058 94.4938 202.23L94.4738 202.281C96.1025 203.078 97.374 204.455 98.0379 206.143C98.7018 207.83 98.71 209.704 98.0609 211.397C97.4117 213.09 96.1524 214.479 94.5307 215.289C92.909 216.1 91.0426 216.274 89.2989 215.778Z" fill="#DA90DA"/>
<path d="M125.462 192.888C117.725 192.888 110.045 191.569 102.752 188.989C101.126 188.546 99.6912 187.581 98.6689 186.241C97.6466 184.902 97.0935 183.263 97.0952 181.578C97.0951 181.058 97.1473 180.54 97.2512 180.03C97.4524 179.048 97.8451 178.115 98.4069 177.284C99.2405 176.049 100.414 175.083 101.786 174.502C102.251 174.305 102.734 174.156 103.228 174.055C104.446 173.806 105.706 173.855 106.901 174.196L106.915 174.157C112.842 176.383 119.121 177.526 125.452 177.53C133.33 177.525 141.102 175.723 148.179 172.26C153.648 169.587 158.61 165.98 162.839 161.601L162.867 161.628C163.575 160.831 164.44 160.19 165.408 159.745C165.901 159.519 166.416 159.347 166.945 159.23C168.002 158.998 169.095 158.989 170.155 159.205C171.138 159.407 172.071 159.799 172.902 160.361C174.136 161.195 175.103 162.368 175.684 163.74C175.88 164.205 176.03 164.688 176.131 165.182C176.349 166.252 176.339 167.356 176.1 168.422C175.859 169.492 175.391 170.498 174.726 171.371C174.4 171.801 174.029 172.195 173.621 172.547C168.202 178.091 161.874 182.664 154.91 186.069C147.003 189.937 138.412 192.21 129.627 192.759C128.257 192.845 126.856 192.888 125.462 192.888ZM168.266 91.6332C167.671 91.6334 167.077 91.5646 166.497 91.4283C165.379 91.1643 164.336 90.6522 163.443 89.93C163.003 89.5748 162.604 89.1724 162.252 88.7301C161.582 88.0567 160.89 87.3969 160.194 86.7692C152.493 79.8203 142.884 75.3425 132.61 73.9154C130.181 73.5735 127.732 73.401 125.279 73.3993C120.787 73.4008 116.315 73.9879 111.975 75.1458C110.28 75.5988 108.61 76.1368 106.969 76.7579L106.958 76.726C105.99 77.0109 104.975 77.1023 103.972 76.9948C102.968 76.8873 101.996 76.5832 101.11 76.0997C100.224 75.6162 99.4417 74.9629 98.8083 74.1772C98.175 73.3914 97.7026 72.4885 97.4184 71.5201C97.1341 70.5517 97.0434 69.5368 97.1515 68.5333C97.2596 67.5299 97.5643 66.5576 98.0483 65.6719C98.5324 64.7863 99.1861 64.0047 99.9723 63.3719C100.758 62.739 101.662 62.2672 102.63 61.9836C104.407 61.3459 106.222 60.7787 108.024 60.2982C112.303 59.159 116.683 58.4459 121.102 58.1692C122.486 58.0836 123.887 58.0405 125.268 58.0405C133.016 58.0411 140.708 59.3636 148.011 61.9511C156.305 64.8997 163.937 69.4533 170.471 75.3517C171.753 76.5075 173.01 77.7318 174.205 78.9906L174.163 79.032C175.318 80.4116 175.949 82.154 175.946 83.9531C175.946 84.473 175.894 84.9915 175.79 85.5009C175.589 86.4833 175.196 87.4165 174.635 88.2472C173.801 89.4819 172.627 90.4484 171.256 91.0296C170.791 91.2258 170.308 91.3756 169.814 91.4767C169.305 91.5807 168.786 91.6331 168.266 91.6332Z" fill="#DA90DA"/>
<path d="M87.5369 179.359C85.791 179.362 84.0966 178.767 82.7354 177.674L82.7209 177.691C81.8852 177.008 81.0558 176.296 80.2578 175.577C70.5428 166.822 63.575 155.439 60.1984 142.805C59.0589 138.526 58.3457 134.145 58.0693 129.727C57.5086 120.594 58.7949 111.442 61.8511 102.818C64.8001 94.5238 69.3536 86.8918 75.2518 80.3575C77.5527 77.8074 80.0436 75.4355 82.7032 73.2623C84.0948 72.0634 85.8713 71.4052 87.7081 71.4079C88.228 71.4078 88.7466 71.46 89.256 71.5639C90.2384 71.7651 91.1716 72.1577 92.0022 72.7195C93.237 73.5531 94.2035 74.7269 94.7846 76.0986C94.9809 76.5632 95.1307 77.0462 95.2318 77.5403C95.4511 78.6165 95.4391 79.7271 95.1967 80.7983C94.9505 81.8798 94.4721 82.8948 93.7945 83.773C93.4614 84.205 93.0836 84.6005 92.6673 84.953L92.6701 84.9564C90.5242 86.6892 88.5178 88.588 86.6693 90.6352C79.8294 98.215 75.3816 107.647 73.8842 117.746H136.164C136.684 117.746 137.202 117.798 137.712 117.902C138.694 118.103 139.627 118.496 140.458 119.058C141.693 119.891 142.659 121.065 143.241 122.437C143.437 122.901 143.587 123.384 143.688 123.878C143.896 124.9 143.896 125.953 143.688 126.974C143.487 127.957 143.094 128.89 142.532 129.72C141.699 130.955 140.525 131.922 139.153 132.503C138.688 132.699 138.205 132.849 137.711 132.95C137.202 133.054 136.683 133.106 136.163 133.106H73.8563C75.6493 145.077 81.5451 156.053 90.5356 164.158C91.0053 164.581 91.4917 165.004 91.9814 165.414C92.9647 166.113 93.7703 167.032 94.3338 168.099C94.9159 169.202 95.2192 170.431 95.2174 171.678C95.2175 172.198 95.1652 172.717 95.0613 173.226C94.86 174.209 94.4673 175.142 93.9056 175.973C93.072 177.207 91.8982 178.174 90.5264 178.755C90.0618 178.951 89.5789 179.101 89.0847 179.202C88.5754 179.306 88.0568 179.359 87.5369 179.359Z" fill="#DA90DA"/>
</svg>
