<svg width="14" height="18" viewBox="0 0 14 18" fill="none" xmlns="http://www.w3.org/2000/svg">
<path d="M7 17.0039C7.5713 17.0039 7.9756 16.5996 7.9756 16.0195V5.165L7.9053 3.2666L10.1816 5.8066L12.1855 7.793C12.3613 7.9688 12.6074 8.083 12.8799 8.083C13.416 8.083 13.8203 7.6787 13.8203 7.125C13.8203 6.8701 13.7236 6.6328 13.5127 6.4219L7.7207 0.621087C7.5273 0.418947 7.2637 0.313477 7 0.313477C6.7275 0.313477 6.4639 0.418947 6.2705 0.621087L0.487298 6.4219C0.276368 6.6328 0.179688 6.8701 0.179688 7.125C0.179688 7.6787 0.575198 8.083 1.11133 8.083C1.39258 8.083 1.63867 7.9688 1.81445 7.793L3.8096 5.8066L6.0947 3.25781L6.0156 5.165V16.0195C6.0156 16.5996 6.4199 17.0039 7 17.0039Z" fill="white"/>
</svg>
