<svg width="15" height="18" viewBox="0 0 15 18" fill="none" xmlns="http://www.w3.org/2000/svg">
<path d="M7.31255 17.5957C7.47075 17.5957 7.69925 17.5341 7.92775 17.4199C12.9639 14.8271 14.6337 13.4648 14.6337 10.3095V3.7793C14.6337 2.74219 14.2294 2.36426 13.3593 2.00391C12.3925 1.59961 9.17575 0.46582 8.23535 0.14941C7.94535 0.0615202 7.62015 0 7.31255 0C7.01365 0 6.68845 0.0615202 6.39845 0.14941C5.44925 0.44824 2.23243 1.6084 1.27442 2.00391C0.4043 2.35547 0 2.74219 0 3.7793V10.3095C0 13.4648 1.74024 14.7041 6.70605 17.4199C6.93455 17.5429 7.16305 17.5957 7.31255 17.5957ZM6.33695 12.7441C6.00295 12.7441 5.73045 12.6035 5.48435 12.2871L3.33106 9.67673C3.17286 9.47463 3.09375 9.26363 3.09375 9.04393C3.09375 8.58693 3.45415 8.21773 3.90235 8.21773C4.18355 8.21773 4.39455 8.32323 4.62305 8.60453L6.31055 10.7402L9.93165 4.94824C10.125 4.64063 10.3711 4.48242 10.6524 4.48242C11.0919 4.48242 11.5048 4.79004 11.5048 5.25583C11.5048 5.45803 11.3995 5.67773 11.2764 5.87993L7.15435 12.2783C6.95215 12.5859 6.67095 12.7441 6.33695 12.7441Z" fill="#DA90DA"/>
</svg>
