<svg width="16" height="22" viewBox="0 0 16 22" fill="currentColor" xmlns="http://www.w3.org/2000/svg">
<path d="M3.53516 1.3291H12.2451C12.1836 0.538086 11.7178 0.116211 10.8652 0.116211H4.91504C4.0625 0.116211 3.59668 0.538086 3.53516 1.3291ZM1.99707 3.88672H13.7217C13.5986 3.05176 13.1768 2.56836 12.2275 2.56836H3.49121C2.55078 2.56836 2.12012 3.05176 1.99707 3.88672ZM2.99023 21.1484H13.2295C14.917 21.1484 15.9014 20.1641 15.9014 18.2832V8.20215C15.9014 6.32129 14.9082 5.33691 13.0098 5.33691H2.99023C1.0918 5.33691 0.0986328 6.32129 0.0986328 8.20215V18.2832C0.0986328 20.1641 1.0918 21.1484 2.99023 21.1484ZM5.16113 15.5322C3.5791 15.5322 2.375 16.3848 1.84766 17.3955V8.36035C1.84766 7.50781 2.2959 7.09473 3.10449 7.09473H12.8955C13.7041 7.09473 14.1523 7.50781 14.1523 8.36035V17.1143C13.4932 16.2441 12.2979 15.541 10.7158 15.541C8.22852 15.541 6.65527 17.3164 6.65527 18.7139C6.65527 19.0127 6.72559 19.2412 6.83984 19.3906H5.72363C5.65332 19.1797 5.61816 18.9424 5.61816 18.6963C5.61816 17.6943 6.10156 16.71 6.92773 15.9541C6.46191 15.6816 5.86426 15.5322 5.16113 15.5322ZM10.7158 14.5391C11.7705 14.5391 12.6494 13.6074 12.6494 12.4033C12.6494 11.2168 11.7705 10.3203 10.7158 10.3203C9.67871 10.3203 8.77344 11.2432 8.78223 12.4121C8.78223 13.6074 9.66992 14.5391 10.7158 14.5391ZM5.16113 14.6533C6.0752 14.6533 6.84863 13.8359 6.84863 12.79C6.84863 11.7529 6.0752 10.9795 5.16113 10.9795C4.24707 10.9795 3.46484 11.7705 3.47363 12.79C3.47363 13.8359 4.24707 14.6533 5.16113 14.6533Z" />
</svg>
