<svg width="250" height="250" viewBox="0 0 250 250" fill="none" xmlns="http://www.w3.org/2000/svg">
<path d="M2.53987 99.8079C5.81464 83.8188 12.2057 68.6311 21.3484 55.1113C34.9154 35.0146 54.019 19.2832 76.3449 9.8232C83.9064 6.62652 91.766 4.18671 99.8085 2.5395C116.432 -0.8465 133.568 -0.8465 150.192 2.5395C166.181 5.81435 181.369 12.2055 194.889 21.3484C199.709 24.6082 204.298 28.1975 208.623 32.0907L208.614 32.1015C209.429 32.6929 210.111 33.4474 210.618 34.3168C211.125 35.1862 211.445 36.1516 211.558 37.1516C211.672 38.1516 211.576 39.1642 211.277 40.1251C210.978 41.0861 210.482 41.9742 209.821 42.7331C209.16 43.492 208.348 44.105 207.438 44.5331C206.527 44.9613 205.537 45.1952 204.531 45.22C203.525 45.2448 202.524 45.0599 201.594 44.6772C200.663 44.2944 199.822 43.7221 199.124 42.9967L199.095 43.0305C189.917 34.7231 179.409 28.0161 168.009 23.1891C161.325 20.3635 154.377 18.2066 147.268 16.7502C132.574 13.7573 117.426 13.7573 102.732 16.7502C88.598 19.6452 75.1727 25.2947 63.2216 33.3763C45.4563 45.3681 31.5502 62.2551 23.1888 81.9908C20.3634 88.675 18.2066 95.6224 16.7498 102.731C13.757 117.426 13.757 132.574 16.7498 147.268C19.6449 161.402 25.2944 174.827 33.3759 186.778C44.2769 202.925 59.2406 215.913 76.7594 224.435L76.7464 224.462C77.6075 224.912 78.3693 225.531 78.9868 226.281C79.6042 227.031 80.0646 227.898 80.3406 228.83C80.6166 229.762 80.7026 230.739 80.5936 231.705C80.4845 232.67 80.1825 233.604 79.7056 234.451C79.2287 235.297 78.5866 236.039 77.8174 236.633C77.0481 237.227 76.1674 237.66 75.2276 237.907C74.2878 238.153 73.3079 238.209 72.3463 238.07C71.3846 237.93 70.4607 237.6 69.6294 237.096C44.8616 224.827 24.8498 204.706 12.7141 179.873C0.578461 155.039 -2.99876 126.888 2.53987 99.8079ZM126.707 235.495C126.738 235.495 126.769 235.495 126.801 235.496L126.8 235.481C133.677 235.371 140.529 234.624 147.269 233.25C161.402 230.355 174.827 224.705 186.779 216.624C204.543 204.631 218.449 187.744 226.811 168.01C229.636 161.325 231.793 154.377 233.25 147.268C237.423 126.947 235.802 105.861 228.571 86.4169C228.136 85.5392 227.884 84.5826 227.828 83.6047C227.773 82.6268 227.917 81.6478 228.25 80.7269C228.584 79.8059 229.1 78.962 229.769 78.2461C230.437 77.5301 231.243 76.957 232.139 76.5611C233.035 76.1653 234.002 75.955 234.981 75.9429C235.961 75.9308 236.932 76.1171 237.838 76.4908C238.743 76.8643 239.564 77.4174 240.249 78.1167C240.935 78.8159 241.473 79.6468 241.829 80.5592L241.863 80.5454C244.243 86.8054 246.115 93.2471 247.461 99.8078C250.846 116.432 250.846 133.568 247.461 150.192C244.186 166.181 237.794 181.368 228.651 194.888C215.085 214.985 195.982 230.717 173.656 240.177C166.094 243.373 158.234 245.813 150.192 247.46C142.652 248.998 134.987 249.841 127.293 249.979V249.977C127.099 249.992 126.904 250 126.707 250C124.783 250 122.939 249.236 121.579 247.876C120.219 246.516 119.454 244.671 119.454 242.747C119.454 240.824 120.219 238.979 121.579 237.619C122.939 236.259 124.783 235.495 126.707 235.495Z" fill="#DA90DA"/>
<path d="M27.7998 135.439L27.8269 135.436C27.8095 135.231 27.8007 135.024 27.8005 134.814C27.8079 132.909 28.5643 131.084 29.9063 129.732C31.2483 128.38 33.0683 127.61 34.9731 127.589C36.8779 127.567 38.7147 128.296 40.0867 129.617C41.4587 130.939 42.2559 132.747 42.3061 134.651C42.5836 137.156 42.9768 139.661 43.4784 142.11C45.6469 152.698 49.879 162.756 55.9334 171.709C64.9173 185.017 77.5677 195.435 92.3519 201.699C97.3594 203.816 102.564 205.432 107.89 206.523C118.899 208.764 130.246 208.764 141.255 206.523C151.843 204.354 161.901 200.122 170.854 194.068C184.162 185.084 194.58 172.433 200.844 157.648C202.961 152.641 204.576 147.436 205.668 142.11C207.91 131.101 207.91 119.753 205.668 108.745C203.499 98.1566 199.267 88.099 193.212 79.1462C184.229 65.8373 171.578 55.4195 156.793 49.1553C148.734 45.7481 140.183 43.6477 131.463 42.9333V42.8964C129.604 42.803 127.853 41.999 126.571 40.6506C125.288 39.3023 124.573 37.5127 124.573 35.652C124.573 33.7912 125.288 32.0017 126.571 30.6533C127.853 29.3049 129.604 28.5009 131.463 28.4075V28.3838L131.686 28.3999C131.733 28.3992 131.78 28.3984 131.827 28.3984C132.264 28.3981 132.699 28.4372 133.129 28.5151C151.104 30.099 168.284 36.6494 182.75 47.4345C197.217 58.2196 208.4 72.8146 215.05 89.589C221.7 106.363 223.555 124.656 220.408 142.424C217.261 160.192 209.236 176.735 197.229 190.205C185.222 203.674 169.706 213.541 152.416 218.701C135.125 223.861 116.74 224.112 99.3145 219.426C81.8893 214.739 66.1102 205.301 53.7401 192.164C41.37 179.027 32.8961 162.709 29.2652 145.034C28.6216 141.888 28.1288 138.659 27.7998 135.439ZM34.2221 89.2989L34.2198 89.2981C34.2236 89.2882 34.2273 89.2767 34.2313 89.2659C34.3744 88.7743 34.5693 88.2993 34.8127 87.8489C34.8534 87.7521 34.8933 87.6561 34.9341 87.5601C44.7304 64.441 63.0618 45.9882 86.1157 36.0395L86.124 36.0588C87.0161 35.6482 87.9823 35.4231 88.964 35.3969C89.9457 35.3708 90.9225 35.5442 91.8352 35.9067C92.7479 36.2692 93.5775 36.8133 94.2738 37.5058C94.97 38.1984 95.5184 39.0251 95.8858 39.9359C96.2531 40.8467 96.4317 41.8226 96.4108 42.8044C96.3899 43.7862 96.1699 44.7536 95.7641 45.6479C95.3582 46.5422 94.7751 47.3448 94.05 48.0071C93.3249 48.6694 92.4728 49.1776 91.5455 49.5009C72.0692 57.9989 56.5924 73.641 48.3016 93.2065C48.1211 93.6343 47.9422 94.0677 47.7702 94.4938L47.7187 94.4738C46.9221 96.1025 45.5446 97.374 43.8574 98.0379C42.1703 98.7018 40.2957 98.71 38.6028 98.0609C36.9099 97.4117 35.5214 96.1524 34.7106 94.5307C33.8998 92.909 33.7256 91.0426 34.2221 89.2989Z" fill="#DA90DA"/>
<path d="M57.1118 125.462C57.1124 117.725 58.431 110.045 61.0109 102.752C61.4537 101.126 62.4194 99.6912 63.7588 98.6689C65.0982 97.6466 66.7369 97.0935 68.4218 97.0952C68.9417 97.0951 69.4603 97.1473 69.9697 97.2512C70.9521 97.4524 71.8853 97.8451 72.716 98.4069C73.9507 99.2405 74.9171 100.414 75.4983 101.786C75.6946 102.251 75.8444 102.734 75.9455 103.228C76.1939 104.446 76.1452 105.706 75.8036 106.901L75.843 106.915C73.6167 112.842 72.4743 119.121 72.4703 125.452C72.4751 133.33 74.2774 141.102 77.7398 148.179C80.4127 153.648 84.02 158.61 88.3992 162.839L88.3724 162.867C89.1689 163.575 89.8098 164.44 90.2547 165.408C90.4806 165.901 90.6534 166.416 90.7703 166.945C91.0023 168.002 91.0106 169.095 90.7946 170.155C90.5934 171.138 90.2007 172.071 89.6389 172.902C88.8054 174.136 87.6316 175.103 86.2599 175.684C85.7952 175.88 85.3123 176.03 84.8182 176.131C83.7481 176.349 82.644 176.339 81.5783 176.1C80.5079 175.859 79.5019 175.391 78.6286 174.726C78.1992 174.4 77.805 174.029 77.4527 173.621C71.9093 168.202 67.336 161.874 63.9314 154.91C60.0634 147.003 57.79 138.412 57.2411 129.627C57.1555 128.257 57.1118 126.856 57.1118 125.462ZM158.367 168.266C158.367 167.671 158.435 167.077 158.572 166.497C158.836 165.379 159.348 164.336 160.07 163.443C160.425 163.003 160.828 162.604 161.27 162.252C161.943 161.582 162.603 160.89 163.231 160.194C170.18 152.493 174.658 142.884 176.085 132.61C176.427 130.181 176.599 127.732 176.601 125.279C176.599 120.787 176.012 116.315 174.854 111.975C174.401 110.28 173.863 108.61 173.242 106.969L173.274 106.958C172.989 105.99 172.898 104.975 173.005 103.972C173.113 102.968 173.417 101.996 173.9 101.11C174.384 100.224 175.037 99.4417 175.823 98.8083C176.609 98.175 177.512 97.7026 178.48 97.4184C179.448 97.1341 180.463 97.0434 181.467 97.1515C182.47 97.2596 183.442 97.5643 184.328 98.0483C185.214 98.5324 185.995 99.1861 186.628 99.9723C187.261 100.758 187.733 101.662 188.016 102.63C188.654 104.407 189.221 106.222 189.702 108.024C190.841 112.303 191.554 116.683 191.831 121.102C191.916 122.486 191.96 123.887 191.96 125.268C191.959 133.016 190.636 140.708 188.049 148.011C185.1 156.305 180.547 163.937 174.648 170.471C173.492 171.753 172.268 173.01 171.009 174.205L170.968 174.163C169.588 175.318 167.846 175.949 166.047 175.946C165.527 175.946 165.008 175.894 164.499 175.79C163.517 175.589 162.583 175.196 161.753 174.635C160.518 173.801 159.552 172.627 158.97 171.256C158.774 170.791 158.624 170.308 158.523 169.814C158.419 169.305 158.367 168.786 158.367 168.266Z" fill="#DA90DA"/>
<path d="M70.6408 87.5369C70.638 85.791 71.2328 84.0966 72.3262 82.7354L72.3089 82.7209C72.9924 81.8852 73.7037 81.0558 74.4234 80.2578C83.1777 70.5428 94.5615 63.575 107.195 60.1984C111.474 59.0589 115.855 58.3457 120.273 58.0693C129.406 57.5086 138.558 58.7949 147.182 61.8511C155.476 64.8001 163.108 69.3536 169.643 75.2518C172.193 77.5527 174.564 80.0436 176.738 82.7032C177.937 84.0948 178.595 85.8713 178.592 87.7081C178.592 88.228 178.54 88.7466 178.436 89.256C178.235 90.2384 177.842 91.1716 177.28 92.0022C176.447 93.237 175.273 94.2035 173.901 94.7846C173.437 94.9809 172.954 95.1307 172.46 95.2318C171.383 95.4511 170.273 95.4391 169.202 95.1967C168.12 94.9505 167.105 94.4721 166.227 93.7945C165.795 93.4614 165.4 93.0836 165.047 92.6673L165.044 92.6701C163.311 90.5242 161.412 88.5178 159.365 86.6693C151.785 79.8294 142.353 75.3816 132.254 73.8842V136.164C132.254 136.684 132.202 137.202 132.098 137.712C131.897 138.694 131.504 139.627 130.942 140.458C130.109 141.693 128.935 142.659 127.563 143.241C127.099 143.437 126.616 143.587 126.122 143.688C125.1 143.896 124.047 143.896 123.026 143.688C122.043 143.487 121.11 143.094 120.28 142.532C119.045 141.699 118.078 140.525 117.497 139.153C117.301 138.688 117.151 138.205 117.05 137.711C116.946 137.202 116.894 136.683 116.894 136.163V73.8563C104.923 75.6493 93.9471 81.5451 85.8423 90.5356C85.4188 91.0053 84.996 91.4917 84.5861 91.9814C83.8874 92.9647 82.9679 93.7703 81.9015 94.3338C80.7981 94.9159 79.5691 95.2192 78.3216 95.2174C77.8017 95.2175 77.2831 95.1652 76.7737 95.0613C75.7913 94.86 74.8582 94.4673 74.0275 93.9056C72.7927 93.072 71.8263 91.8982 71.2451 90.5264C71.0488 90.0618 70.899 89.5789 70.7979 89.0847C70.6936 88.5754 70.641 88.0568 70.6408 87.5369Z" fill="#DA90DA"/>
</svg>
