<svg width="16" height="19" viewBox="0 0 16 19" fill="currentColor" xmlns="http://www.w3.org/2000/svg">
<path d="M15.418 11.4121V4.75879C15.418 3.72168 15.0137 3.34375 14.1436 2.9834C13.168 2.5791 9.8633 1.35742 8.9053 1.09375C8.624 1.01465 8.29 0.935547 7.9912 0.935547C7.7012 0.935547 7.3672 0.997067 7.0771 1.09375C6.1191 1.41016 2.82324 2.57031 1.84766 2.9834C0.977542 3.35254 0.573242 3.72168 0.573242 4.75879V11.4121C0.573242 14.6113 2.32227 15.877 7.376 18.6279C7.6045 18.751 7.8418 18.8125 7.9912 18.8125C8.1494 18.8125 8.3867 18.751 8.6152 18.6279C13.6514 15.8682 15.418 14.6113 15.418 11.4121ZM7.8418 16.9404C7.7451 16.9141 7.6396 16.8613 7.4902 16.7646C3.51758 14.374 2.2168 13.6709 2.2168 11.0781V5.04004C2.2168 4.73242 2.28711 4.60059 2.52441 4.5127C3.85156 4.03809 6.3564 3.15039 7.5342 2.68457C7.6748 2.64062 7.7627 2.61426 7.8418 2.60547V16.9404Z" />
</svg>
