<svg width="16" height="18" viewBox="0 0 16 18" fill="currentColor" xmlns="http://www.w3.org/2000/svg">
<path d="M8 8.8477C10.127 8.8477 11.8496 6.9668 11.8496 4.66406C11.8496 2.39648 10.127 0.594727 8 0.594727C5.8818 0.594727 4.1416 2.42285 4.1504 4.68164C4.1592 6.9756 5.873 8.8477 8 8.8477ZM8 7.3096C6.7871 7.3096 5.7588 6.1582 5.7588 4.68164C5.75 3.24023 6.7783 2.13281 8 2.13281C9.2305 2.13281 10.2412 3.22266 10.2412 4.66406C10.2412 6.1406 9.2217 7.3096 8 7.3096ZM2.51562 17.0215H13.4756C14.9961 17.0215 15.7256 16.5381 15.7256 15.501C15.7256 13.084 12.7109 9.8672 8 9.8672C3.28906 9.8672 0.265625 13.084 0.265625 15.501C0.265625 16.5381 0.995125 17.0215 2.51562 17.0215ZM2.24317 15.4834C2.03224 15.4834 1.95312 15.4131 1.95312 15.2549C1.95312 13.9102 4.124 11.4053 8 11.4053C11.8672 11.4053 14.0381 13.9102 14.0381 15.2549C14.0381 15.4131 13.959 15.4834 13.748 15.4834H2.24317Z" />
</svg>
