<svg width="15" height="18" viewBox="0 0 15 18" fill="currentColor" color="#DA90DA" xmlns="http://www.w3.org/2000/svg">
<path fill-rule="evenodd" clip-rule="evenodd" d="M7.92775 17.4199C7.69925 17.5341 7.47075 17.5957 7.31255 17.5957C7.16305 17.5957 6.93455 17.5429 6.70605 17.4199C1.74024 14.7041 0 13.4648 0 10.3095V3.7793C0 2.74219 0.4043 2.35547 1.27442 2.00391C2.23243 1.6084 5.44925 0.44824 6.39845 0.14941C6.68845 0.0615202 7.01365 0 7.31255 0C7.62015 0 7.94535 0.0615202 8.23535 0.14941C9.17575 0.46582 12.3925 1.59961 13.3593 2.00391C14.2294 2.36426 14.6337 2.74219 14.6337 3.7793V10.3095C14.6337 13.4648 12.9639 14.8271 7.92775 17.4199ZM3.49642 4.34645C3.69168 4.15118 4.00827 4.15118 4.20353 4.34645L7.38573 7.52865L10.5675 4.34686C10.7628 4.1516 11.0794 4.1516 11.2746 4.34686C11.4699 4.54212 11.4699 4.8587 11.2746 5.05397L8.09283 8.23575L11.2746 11.4175C11.4699 11.6128 11.4699 11.9294 11.2746 12.1246C11.0793 12.3199 10.7628 12.3199 10.5675 12.1246L7.38573 8.94286L4.20355 12.125C4.00829 12.3203 3.69171 12.3203 3.49645 12.125C3.30118 11.9298 3.30118 11.6132 3.49645 11.4179L6.67862 8.23575L3.49642 5.05355C3.30116 4.85829 3.30116 4.54171 3.49642 4.34645Z" />
</svg>
